<svg width="24" height="24" viewBox="0 0 24 24" fill="none" xmlns="http://www.w3.org/2000/svg">
<path d="M23 14.8153C23 16.5086 21.2534 17.5309 19.7199 17.4845C18.9414 17.4666 18.1909 17.1906 17.5863 16.6997C17.2848 16.4529 16.9906 16.1965 16.6925 15.9435C15.7731 15.1666 14.8529 14.3903 13.9319 13.6146L12 11.9862L16.2254 8.42257C16.7757 7.8972 17.3664 7.41574 17.9919 6.9826C19.5625 6.03625 22.0867 6.46182 22.8281 8.2916C23.009 8.77287 23.0328 9.29906 22.8961 9.7947C22.7595 10.2903 22.4694 10.73 22.0674 11.0505C21.7037 11.3675 21.328 11.6744 20.9581 11.9862C21.8656 12.7507 23 13.4881 23 14.8153Z" fill="#068C38"/>
<path d="M17.5 19.8168C17.5 21.4812 16.191 23.3368 14.3427 22.9336C13.2822 22.7022 12.6566 21.7232 12 20.9443C11.1939 21.9009 10.3999 23.1006 8.97501 22.9779C6.96064 22.8036 6.12532 20.374 6.67842 18.6762C6.97335 17.7704 7.70554 17.0767 8.30779 16.3631L10.1984 14.1208L12 11.9861C13.3791 13.6217 14.7585 15.2568 16.1381 16.8915C16.3656 17.1606 16.6063 17.4236 16.819 17.7051C17.2682 18.3169 17.5071 19.0578 17.5 19.8168Z" fill="#068C38"/>
<path d="M17.5 4.15558C17.5 5.22808 17.0208 6.03624 16.356 6.82308L15.5956 7.72371L12.8762 10.9481L12 11.9862V3.34124C12 3.12227 11.9756 3.0573 12.1151 2.89161C12.4517 2.4469 12.8184 2.02584 13.2127 1.63143C13.6329 1.24353 14.1787 1.01982 14.7502 1.0012C15.3217 0.982582 15.8809 1.1703 16.3254 1.53002C16.7022 1.85437 17.0028 2.25783 17.2058 2.71166C17.4089 3.16548 17.5093 3.6585 17.5 4.15558Z" fill="#39B54A"/>
<path d="M17.5 19.8168C17.512 20.3423 17.3995 20.8632 17.1719 21.337C16.9442 21.8108 16.6077 22.2241 16.1899 22.543C15.7992 22.8204 15.3332 22.972 14.8541 22.9774C14.375 22.9829 13.9056 22.842 13.5087 22.5736C13.0255 22.1841 12.5976 21.7305 12.2368 21.2255C12.0577 21.0134 11.9996 20.9848 11.9996 20.7315V11.9861C13.3788 13.6217 14.7581 15.2568 16.1377 16.8915C16.3653 17.1606 16.6059 17.4236 16.8187 17.7051C17.2679 18.3169 17.507 19.0578 17.5 19.8168Z" fill="#068C38"/>
<path opacity="0.2" d="M17.5 19.8168C17.512 20.3423 17.3995 20.8632 17.1719 21.337C16.9442 21.8108 16.6077 22.2241 16.1899 22.543C15.7992 22.8204 15.3332 22.972 14.8541 22.9774C14.375 22.9829 13.9056 22.842 13.5087 22.5736C13.0255 22.1841 12.5976 21.7305 12.2368 21.2255C12.0577 21.0134 11.9996 20.9848 11.9996 20.7315V11.9861C13.3788 13.6217 14.7581 15.2568 16.1377 16.8915C16.3653 17.1606 16.6059 17.4236 16.8187 17.7051C17.2679 18.3169 17.507 19.0578 17.5 19.8168Z" fill="black"/>
<path d="M23 9.15721C22.9886 9.53086 22.8953 9.89746 22.7266 10.2311C22.558 10.5647 22.3182 10.8573 22.0241 11.0881C21.7036 11.3962 21.3635 11.6832 21.0059 11.9474C20.6965 12.0935 20.15 11.9876 19.8066 11.9876H12L15.4849 9.04824C15.8456 8.7439 16.2062 8.43969 16.5667 8.13558C17.4288 7.40752 18.2078 6.65299 19.3892 6.51343C21.0104 6.32058 23 7.32811 23 9.15721Z" fill="#068C38"/>
<path d="M12 11.9862H3.04188L1.92813 11.0478C1.64377 10.8204 1.41314 10.533 1.2527 10.2062C1.09226 9.87938 1.00597 9.52116 1 9.15713C0.99959 8.80901 1.07959 8.4655 1.23375 8.15338C1.27156 8.07431 1.31625 7.99525 1.36094 7.91619C1.51505 7.67244 1.70644 7.45437 1.92813 7.26994C2.56493 6.76248 3.3551 6.48615 4.16938 6.48615C4.98365 6.48615 5.77382 6.76248 6.41063 7.26994L7.52094 8.20838L8.28406 8.85119L12 11.9862Z" fill="#39B54A"/>
<path opacity="0.4" d="M12 11.9862H3.04188L1.92813 11.0478C1.64377 10.8204 1.41314 10.533 1.2527 10.2062C1.09226 9.87938 1.00597 9.52116 1 9.15713C0.99959 8.80901 1.07959 8.4655 1.23375 8.15338C1.27156 8.07431 1.31625 7.99525 1.36094 7.91619C1.51505 7.67244 1.70644 7.45437 1.92813 7.26994C2.56493 6.76248 3.3551 6.48615 4.16938 6.48615C4.98365 6.48615 5.77382 6.76248 6.41063 7.26994L7.52094 8.20838L8.28406 8.85119L12 11.9862Z" fill="white"/>
<path d="M12 11.9861L7.52098 15.764L6.41066 16.7024C5.77858 17.2183 4.98528 17.4958 4.16941 17.4861C3.85997 17.4863 3.55169 17.4482 3.2516 17.3727C2.76543 17.2523 2.31292 17.0231 1.92817 16.7024C1.70659 16.5178 1.51522 16.2998 1.36098 16.0561C1.31629 15.9771 1.2716 15.898 1.23379 15.819C1.00177 15.3297 0.944135 14.7758 1.07045 14.2493C1.19677 13.7228 1.49943 13.2553 1.92817 12.9246L3.04192 11.9861H12Z" fill="#068C38"/>
<path d="M23 14.8152C22.994 15.1787 22.9076 15.5364 22.7472 15.8627C22.5867 16.189 22.3561 16.4757 22.0719 16.7024C21.4351 17.2099 20.6449 17.4862 19.8306 17.4862C19.0164 17.4862 18.2262 17.2099 17.5894 16.7024L16.4791 15.764L14.6091 14.1861L12 11.9861H20.9581L22.0719 12.9246C22.3562 13.152 22.5869 13.4393 22.7473 13.7661C22.9077 14.093 22.994 14.4512 23 14.8152Z" fill="#39B54A"/>
<path opacity="0.2" d="M23 14.8152C22.994 15.1787 22.9076 15.5364 22.7472 15.8627C22.5867 16.189 22.3561 16.4757 22.0719 16.7024C21.4351 17.2099 20.6449 17.4862 19.8306 17.4862C19.0164 17.4862 18.2262 17.2099 17.5894 16.7024L16.4791 15.764L14.6091 14.1861L12 11.9861H20.9581L22.0719 12.9246C22.3562 13.152 22.5869 13.4393 22.7473 13.7661C22.9077 14.093 22.994 14.4512 23 14.8152Z" fill="black"/>
<path d="M12 11.9861V20.2681C12.0187 20.4705 12.0187 20.6742 12 20.8765C11.9594 21.0766 11.7515 21.2392 11.6184 21.3973C11.3347 21.7775 11.0148 22.1292 10.6631 22.4475C9.28815 23.5447 7.45734 22.7974 6.80249 21.2787C6.52922 20.6305 6.44636 19.9178 6.56362 19.2242C6.68087 18.5306 6.9934 17.8848 7.46456 17.3624C7.82481 16.9366 8.18471 16.5106 8.54428 16.0843L12 11.9861Z" fill="#39B54A"/>
<path d="M12 3.02807V11.9862C10.9309 10.7191 9.86196 9.45207 8.79313 8.18501C8.5305 7.87311 8.26765 7.56133 8.00457 7.24967C7.61413 6.83971 7.26204 6.39487 6.95269 5.92073C6.0665 4.35976 6.49619 1.93598 8.25894 1.17698C8.74371 0.982498 9.27825 0.949396 9.78331 1.08258C10.2884 1.21577 10.7371 1.50815 11.0629 1.91639C11.3812 2.2811 11.6878 2.65751 12 3.02807Z" fill="#068C38"/>
<path opacity="0.4" d="M12 3.02807V11.9862C10.9309 10.7191 9.86196 9.45207 8.79313 8.18501C8.5305 7.87311 8.26765 7.56133 8.00457 7.24967C7.61413 6.83971 7.26204 6.39487 6.95269 5.92073C6.0665 4.35976 6.49619 1.93598 8.25894 1.17698C8.74371 0.982498 9.27825 0.949396 9.78331 1.08258C10.2884 1.21577 10.7371 1.50815 11.0629 1.91639C11.3812 2.2811 11.6878 2.65751 12 3.02807Z" fill="white"/>
<path opacity="0.4" d="M10.625 4.42365C10.625 5.21152 10.2348 6.48615 9.25 6.48615C8.26516 6.48615 7.875 5.21427 7.875 4.42365C7.875 3.63302 8.26481 2.35874 9.25 2.36115C10.2352 2.36355 10.625 3.63302 10.625 4.42365Z" fill="white"/>
<path opacity="0.4" d="M4.4375 10.6111C5.57659 10.6111 6.5 9.99554 6.5 9.23614C6.5 8.47675 5.57659 7.86115 4.4375 7.86115C3.29841 7.86115 2.375 8.47675 2.375 9.23614C2.375 9.99554 3.29841 10.6111 4.4375 10.6111Z" fill="white"/>
</svg>
