<svg width="48" height="48" viewBox="0 0 48 48" fill="none" xmlns="http://www.w3.org/2000/svg">
<g clip-path="url(#clip0_8027_2907)">
<path d="M46.7372 35.4139C49.8113 28.9686 47.0807 21.2527 40.6383 18.1799C34.1958 15.1072 26.4811 17.8411 23.407 24.2864C20.3329 30.7317 23.0635 38.4476 29.5059 41.5203C35.9484 44.5931 43.6631 41.8592 46.7372 35.4139Z" fill="#0059AD"/>
<path d="M35.3524 24.5783C35.0364 23.686 34.1865 23.173 33.454 23.4324C32.7215 23.6917 32.3839 24.6253 32.6999 25.5176C33.0158 26.4099 33.8658 26.9229 34.5982 26.6635C35.3307 26.4041 35.6684 25.4705 35.3524 24.5783Z" fill="#0481BF"/>
<path d="M41.101 22.5422C41.417 23.4344 41.0795 24.368 40.347 24.6275C39.6145 24.8868 38.7646 24.3737 38.4486 23.4813C38.1327 22.5889 38.4701 21.6553 39.2026 21.396C39.9353 21.1365 40.7849 21.6498 41.101 22.5422Z" fill="#0481BF"/>
<path d="M39.8148 28.0477C39.4988 27.1554 38.6489 26.6424 37.9164 26.9018C37.1839 27.1612 36.8463 28.0948 37.1623 28.987C37.4782 29.8793 38.3282 30.3923 39.0606 30.1329C39.7931 29.8735 40.1308 28.9399 39.8148 28.0477Z" fill="#0481BF"/>
<path d="M21.4634 20.9758C21.1105 20.431 20.7239 19.9893 20.367 19.4692C18.1673 16.2643 17.7739 13.0593 19.1833 9.85429C19.8036 8.59425 20.1534 7.77369 20.1516 6.62559C20.1555 4.13073 18.4565 2.6502 16.3044 2.64157C14.1522 2.6502 12.453 4.13082 12.4571 6.62559C12.4552 7.77379 12.5552 8.24899 13.4254 9.85439C14.8347 13.0594 14.4413 16.2644 12.2417 19.4692C11.98 19.8741 11.4981 20.4309 11.1453 20.9758C9.76727 23.1031 9.0083 25.9316 9.0083 28.9404C9.0083 32.5948 10.1648 36.0369 12.1017 38.1478C12.3196 38.3853 12.6271 38.5205 12.9493 38.5205H19.6596C19.982 38.5205 20.2895 38.3853 20.5073 38.1478C22.4443 36.0368 23.6006 32.5948 23.6006 28.9404C23.6003 25.9316 22.8415 23.1031 21.4634 20.9758Z" fill="#D0D5D5"/>
<path d="M19.8199 18.608C19.2582 17.6488 18.8592 16.6897 18.6211 15.7305H13.9868C13.7487 16.6897 13.3496 17.6488 12.7881 18.608H19.8199Z" fill="#EE3835"/>
<path d="M14.2173 12.8531H18.3907C18.4758 11.8938 18.7237 10.9347 19.1319 9.97552H13.4761C13.8843 10.9346 14.1322 11.8938 14.2173 12.8531Z" fill="#EE3835"/>
<path opacity="0.1" d="M10.968 28.9404C10.968 25.9317 11.727 23.1031 13.1051 20.9758C13.4579 20.431 13.9397 19.8741 14.2014 19.4692C16.401 16.2644 16.7945 13.0594 15.3853 9.85439C14.515 8.24899 14.4151 7.77379 14.417 6.62559C14.4135 4.52699 15.6155 3.14639 17.2782 2.75557C16.9675 2.68329 16.6418 2.64298 16.3039 2.64157C14.1517 2.6502 12.4525 4.13082 12.4566 6.62559C12.4547 7.77379 12.5547 8.24899 13.4249 9.85439C14.8342 13.0594 14.4408 16.2644 12.2412 19.4692C11.9795 19.8741 11.4976 20.4309 11.1448 20.9758C9.76678 23.1031 9.00781 25.9316 9.00781 28.9404C9.00781 32.5948 10.1643 36.0369 12.1012 38.1478C12.3191 38.3853 12.6266 38.5205 12.9488 38.5205H14.9091C14.5869 38.5205 14.2794 38.3853 14.0616 38.1478C12.1245 36.0368 10.968 32.5948 10.968 28.9404Z" fill="black"/>
<path d="M30.3549 27.8136C30.0019 27.2688 29.6155 26.827 29.2584 26.3071C27.0589 23.1021 26.6652 19.8971 28.0749 16.6922C28.6951 15.4322 29.0448 14.6116 29.0431 13.4634C29.0469 10.9686 27.348 9.48812 25.1958 9.4794C23.0437 9.48812 21.3447 10.9686 21.3486 13.4634C21.3468 14.6116 21.4467 15.0868 22.3168 16.6923C23.7261 19.8973 23.3328 23.1022 21.1331 26.3072C20.8715 26.7121 20.3896 27.2689 20.0367 27.8137C18.6588 29.941 17.8999 32.7696 17.8999 35.7783C17.8999 39.4327 19.0563 42.8748 20.9932 44.9858C21.211 45.2232 21.5186 45.3584 21.8408 45.3584H28.5511C28.8733 45.3584 29.1807 45.2232 29.3988 44.9858C31.3357 42.8748 32.4921 39.4328 32.4921 35.7783C32.4918 32.7695 31.7328 29.9409 30.3549 27.8136Z" fill="#E9EAEC"/>
<path d="M19.7202 43.2184C20.0944 43.8756 20.5202 44.4705 20.9928 44.9856C21.2106 45.223 21.5182 45.3582 21.8404 45.3582H28.5507C28.8729 45.3582 29.1803 45.223 29.3984 44.9856C29.8709 44.4705 30.2967 43.8756 30.6709 43.2184H19.7202Z" fill="#D0D5D5"/>
<path d="M23.1089 19.6909H27.2822C27.3674 18.7316 27.6153 17.7724 28.0235 16.8132H22.3677C22.7758 17.7723 23.0238 18.7316 23.1089 19.6909Z" fill="#EE3835"/>
<path d="M28.7112 25.4458C28.1498 24.4867 27.7507 23.5276 27.5127 22.5684H22.8783C22.6403 23.5276 22.2413 24.4867 21.6797 25.4458H28.7112Z" fill="#EE3835"/>
<path opacity="0.1" d="M20.0304 35.7782C20.0304 32.7695 20.7892 29.9409 22.1671 27.8136C22.5201 27.2688 23.0019 26.712 23.2635 26.3071C25.4632 23.1022 25.8566 19.8972 24.4473 16.6922C23.5772 15.0867 23.4773 14.6115 23.4791 13.4633C23.4758 11.3985 24.6398 10.0294 26.2611 9.61355C25.9235 9.52703 25.5666 9.48081 25.1958 9.47931C23.0437 9.48803 21.3447 10.9686 21.3486 13.4633C21.3468 14.6115 21.4467 15.0867 22.3168 16.6922C23.7261 19.8972 23.3328 23.1021 21.1331 26.3071C20.8715 26.712 20.3896 27.2688 20.0367 27.8136C18.6588 29.9409 17.8999 32.7695 17.8999 35.7782C17.8999 39.4326 19.0563 42.8747 20.9932 44.9857C21.211 45.2232 21.5186 45.3583 21.8408 45.3583H23.9714C23.6491 45.3583 23.3416 45.2232 23.1238 44.9857C21.1867 42.8747 20.0304 39.4326 20.0304 35.7782Z" fill="black"/>
<path d="M12.4553 27.8136C12.1023 27.2688 11.7157 26.827 11.3588 26.3071C9.15917 23.1021 8.76572 19.8971 10.1751 16.6922C10.7954 15.4322 11.1452 14.6116 11.1433 13.4634C11.1471 10.9686 9.44819 9.48812 7.29597 9.4794C5.14394 9.48812 3.44479 10.9686 3.44873 13.4634C3.44695 14.6116 3.54688 15.0868 4.41703 16.6923C5.82641 19.8973 5.43295 23.1022 3.2333 26.3072C2.97156 26.7121 2.48971 27.2689 2.13685 27.8137C0.758874 29.9409 0 32.7695 0 35.7782C0 39.4326 1.15636 42.8747 3.09334 44.9857C3.3112 45.2231 3.61869 45.3583 3.94089 45.3583H10.6513C10.9736 45.3583 11.2809 45.2231 11.4989 44.9857C13.4358 42.8747 14.5922 39.4327 14.5922 35.7782C14.5922 32.7695 13.8333 29.9409 12.4553 27.8136Z" fill="#E9EAEC"/>
<path d="M10.812 25.4458C10.2504 24.4867 9.85136 23.5276 9.61334 22.5684H4.97891C4.74089 23.5276 4.34191 24.4867 3.78027 25.4458H10.812Z" fill="#EE3835"/>
<path d="M5.20942 19.6909H9.3828C9.46802 18.7316 9.71569 17.7724 10.124 16.8132H4.46826C4.87643 17.7723 5.12439 18.7316 5.20942 19.6909Z" fill="#EE3835"/>
<path d="M1.8208 43.2184C2.19503 43.8756 2.62074 44.4705 3.0934 44.9856C3.31127 45.223 3.61875 45.3582 3.94096 45.3582H10.6514C10.9737 45.3582 11.281 45.223 11.4989 44.9856C11.9716 44.4705 12.3973 43.8756 12.7716 43.2184H1.8208Z" fill="#D0D5D5"/>
<path opacity="0.1" d="M2.16356 35.7782C2.16356 32.7695 2.92253 29.9409 4.3005 27.8136C4.65346 27.2688 5.13522 26.712 5.39696 26.3071C7.59661 23.1022 7.99006 19.8972 6.58069 16.6922C5.71054 15.0867 5.6106 14.6115 5.61238 13.4633C5.6091 11.4055 6.76518 10.0386 8.3778 9.61787C8.03544 9.52853 7.67292 9.48081 7.29597 9.47931C5.14394 9.48803 3.44479 10.9686 3.44873 13.4633C3.44695 14.6115 3.54688 15.0867 4.41703 16.6922C5.82641 19.8972 5.43295 23.1021 3.2333 26.3071C2.97156 26.712 2.48971 27.2688 2.13685 27.8136C0.758874 29.9409 0 32.7695 0 35.7782C0 39.4326 1.15636 42.8747 3.09334 44.9857C3.3112 45.2232 3.61869 45.3583 3.94089 45.3583H6.10455C5.78235 45.3583 5.47486 45.2232 5.25699 44.9857C3.32001 42.8747 2.16356 39.4326 2.16356 35.7782Z" fill="black"/>
</g>
<defs>
<clipPath id="clip0_8027_2907">
<rect width="48" height="48" fill="white"/>
</clipPath>
</defs>
</svg>
