<svg width="48" height="48" viewBox="0 0 48 48" fill="none" xmlns="http://www.w3.org/2000/svg">
<g clip-path="url(#clip0_8027_2869)">
<path d="M35.2032 46.9636C35.2032 47.2639 34.9575 47.5097 34.6572 47.5097H14.7599C14.4596 47.5097 14.2139 47.2639 14.2139 46.9636V19.1099C14.2139 18.8096 14.4596 18.564 14.7599 18.564H34.6572C34.9575 18.564 35.2032 18.8096 35.2032 19.1099V46.9636Z" fill="#D0D5D5"/>
<path d="M16.8667 45.3256C16.6089 45.3256 16.3979 45.1146 16.3979 44.8568V21.2166C16.3979 20.9588 16.6089 20.7479 16.8667 20.7479H32.5503C32.8081 20.7479 33.0191 20.9588 33.0191 21.2166V44.8567C33.0191 45.1145 32.8081 45.3255 32.5503 45.3255H16.8667V45.3256Z" fill="#6ECAD5"/>
<path d="M18.1321 20.7479L16.3979 22.4758V24.4609L20.1243 20.7479H18.1321Z" fill="#0CB8C0"/>
<path d="M21.3663 20.7479L16.3979 25.6973V27.6822L23.3589 20.7479H21.3663Z" fill="#0CB8C0"/>
<path d="M24.602 20.7479L16.3979 28.9188V30.9036L26.5949 20.7479H24.602Z" fill="#0CB8C0"/>
<path d="M27.8369 20.7479L16.3979 32.1399V34.1246L29.8298 20.7479H27.8369Z" fill="#0CB8C0"/>
<path d="M32.9027 20.9116C32.8167 20.8123 32.6912 20.748 32.5503 20.748H31.074L16.3979 35.3606V37.3382C16.4186 37.3218 16.4387 37.3045 16.4579 37.2854L32.9027 20.9116Z" fill="#0CB8C0"/>
<path d="M32.9726 22.0801L16.3979 38.5829V40.5672L33.0191 24.0184V22.0385C33.0031 22.0516 32.9876 22.0653 32.9726 22.0801Z" fill="#0CB8C0"/>
<path d="M16.3979 43.7888L33.0191 27.2372V25.2527L16.3979 41.8042V43.7888Z" fill="#0CB8C0"/>
<path d="M16.8667 45.3256H18.0948L33.0191 30.4579V28.4729L16.4243 45.0047C16.4868 45.1901 16.6608 45.3256 16.8667 45.3256Z" fill="#0CB8C0"/>
<path d="M21.3281 45.3256L33.0189 33.6808V31.6959L19.3354 45.3256H21.3281Z" fill="#0CB8C0"/>
<path d="M24.5625 45.3256L33.019 36.9021V34.9173L22.5698 45.3256H24.5625Z" fill="#0CB8C0"/>
<path d="M27.7979 45.3256L33.0192 40.1229V38.1378L25.8057 45.3256H27.7979Z" fill="#0CB8C0"/>
<path d="M31.0328 45.3256L33.019 43.3455V41.3597L29.041 45.3256H31.0328Z" fill="#0CB8C0"/>
<path d="M20.9825 38.207C20.9825 38.4726 20.7652 38.6899 20.4996 38.6899H0.482906C0.217313 38.6899 0 38.4726 0 38.207V10.2367C0 9.97107 0.217313 9.75375 0.482906 9.75375H20.4996C20.7652 9.75375 20.9825 9.97107 20.9825 10.2367V38.207Z" fill="#E9EAEC"/>
<path opacity="0.1" d="M1.66547 38.207V10.2367C1.66547 9.97107 1.88278 9.75375 2.14838 9.75375H0.482906C0.217313 9.75375 0 9.97107 0 10.2367V38.207C0 38.4726 0.217313 38.6899 0.482906 38.6899H2.14838C1.88278 38.6899 1.66547 38.4726 1.66547 38.207Z" fill="black"/>
<path d="M10.5046 19.2297C10.4193 19.2297 10.3381 19.1936 10.281 19.1306L7.71037 16.2937C7.6064 16.1792 7.60706 16.0046 7.71178 15.8906L10.2824 13.0913C10.3393 13.0294 10.42 12.994 10.5047 12.994C10.5892 12.994 10.6699 13.0294 10.727 13.0913L13.2975 15.8906C13.4021 16.0046 13.4027 16.179 13.2988 16.2937L10.7282 19.1306C10.671 19.1936 10.5899 19.2297 10.5046 19.2297Z" fill="#EE3835"/>
<path d="M10.5046 27.4273C10.4193 27.4273 10.3381 27.3912 10.281 27.3284L7.71037 24.4915C7.6064 24.3771 7.60706 24.2024 7.71178 24.0882L10.2824 21.2892C10.3393 21.2272 10.42 21.1916 10.5047 21.1916C10.5892 21.1916 10.6699 21.2272 10.727 21.2892L13.2975 24.0882C13.4021 24.2024 13.4027 24.3769 13.2988 24.4915L10.7282 27.3284C10.671 27.3912 10.5899 27.4273 10.5046 27.4273Z" fill="#EE3835"/>
<path d="M10.5046 35.3184C10.4193 35.3184 10.3381 35.2823 10.281 35.2193L7.71037 32.3826C7.6064 32.268 7.60706 32.0937 7.71178 31.9796L10.2824 29.1801C10.3393 29.1181 10.42 29.0827 10.5047 29.0827C10.5892 29.0827 10.6699 29.1181 10.727 29.1801L13.2975 31.9796C13.4021 32.0935 13.4027 32.2678 13.2988 32.3826L10.7282 35.2193C10.671 35.2824 10.5899 35.3184 10.5046 35.3184Z" fill="#EE3835"/>
<path d="M4.55551 12.502C4.55551 11.6571 3.87179 10.9696 3.03142 10.9696H2.03467C1.64636 10.9696 1.33154 11.2843 1.33154 11.6727C1.33154 12.0611 1.64636 12.3759 2.03467 12.3759H3.03142C3.09639 12.3759 3.14926 12.4325 3.14926 12.502C3.14926 12.5714 3.09639 12.6279 3.03142 12.6279H2.56089C2.17257 12.6279 1.85776 12.9427 1.85776 13.3311C1.85776 13.7195 2.17257 14.0342 2.56089 14.0342H3.03142C3.09639 14.0342 3.14926 14.0907 3.14926 14.1601C3.14926 14.2296 3.09639 14.2861 3.03142 14.2861H2.03467C1.64636 14.2861 1.33154 14.6008 1.33154 14.9892C1.33154 15.3776 1.64636 15.6924 2.03467 15.6924H3.03142C3.87179 15.6924 4.55551 15.005 4.55551 14.1601C4.55551 13.8546 4.46514 13.5703 4.3112 13.3311C4.46504 13.0917 4.55551 12.8075 4.55551 12.502Z" fill="#005289"/>
<path d="M36.9925 28.9432C36.9925 29.2088 36.7752 29.426 36.5096 29.426H16.4932C16.2276 29.426 16.0103 29.2088 16.0103 28.9432V0.973232C16.0103 0.707545 16.2276 0.490326 16.4932 0.490326H36.5096C36.7752 0.490326 36.9925 0.707545 36.9925 0.973232V28.9432Z" fill="#D0D5D5"/>
<path opacity="0.1" d="M17.6978 28.9432V0.973232C17.6978 0.707545 17.9151 0.490326 18.1807 0.490326H16.4932C16.2276 0.490326 16.0103 0.707545 16.0103 0.973232V28.9432C16.0103 29.2088 16.2276 29.426 16.4932 29.426H18.1807C17.9151 29.426 17.6978 29.2088 17.6978 28.9432Z" fill="black"/>
<path d="M28.5584 20.3615H27.2256V18.0712C27.2256 17.6711 26.9013 17.3468 26.5013 17.3468C26.1012 17.3468 25.7769 17.6711 25.7769 18.0712V20.3615H24.4436C24.0436 20.3615 23.7192 20.6857 23.7192 21.0859C23.7192 21.486 24.0436 21.8102 24.4436 21.8102H28.5584C28.9586 21.8102 29.2828 21.486 29.2828 21.0859C29.2828 20.6857 28.9585 20.3615 28.5584 20.3615Z" fill="#005289"/>
<path d="M21.7323 6.24805L20.3113 2.31674C20.0881 1.6994 19.6078 1.6514 19.466 1.6514C19.3242 1.6514 18.8439 1.6994 18.6207 2.31684L17.1996 6.24805C17.0636 6.62427 17.2584 7.03949 17.6346 7.17562C17.716 7.20496 17.799 7.21883 17.8808 7.21883C18.1772 7.21883 18.4555 7.03546 18.5621 6.74052L18.7176 6.3103H20.2144L20.3699 6.74052C20.5059 7.11684 20.9212 7.31137 21.2974 7.17562C21.6736 7.03949 21.8683 6.62418 21.7323 6.24805ZM19.2413 4.86149L19.4661 4.23965L19.6908 4.86149H19.2413Z" fill="#005289"/>
<path d="M32.0434 40.2655C31.5123 40.2655 31.0776 39.8309 31.0776 39.2997V24.309C31.0776 23.7778 31.5123 23.3432 32.0434 23.3432H47.0343C47.5655 23.3432 48.0001 23.7778 48.0001 24.309L48 39.2997C48 39.8309 47.5654 40.2655 47.0342 40.2655H32.0434Z" fill="#EE3835"/>
<path d="M44.5445 28.4567C45.4148 28.4567 46.1202 27.7512 46.1202 26.8809C46.1202 26.0107 45.4148 25.3052 44.5445 25.3052C43.6742 25.3052 42.9688 26.0107 42.9688 26.8809C42.9688 27.7512 43.6742 28.4567 44.5445 28.4567Z" fill="#3C3F44"/>
<path d="M39.539 33.3981C40.4092 33.3981 41.1147 32.6927 41.1147 31.8225C41.1147 30.9523 40.4092 30.2468 39.539 30.2468C38.6688 30.2468 37.9634 30.9523 37.9634 31.8225C37.9634 32.6927 38.6688 33.3981 39.539 33.3981Z" fill="#3C3F44"/>
<path d="M34.5337 28.4565C35.4039 28.4565 36.1093 27.7511 36.1093 26.8809C36.1093 26.0107 35.4039 25.3052 34.5337 25.3052C33.6635 25.3052 32.958 26.0107 32.958 26.8809C32.958 27.7511 33.6635 28.4565 34.5337 28.4565Z" fill="#3C3F44"/>
<path d="M44.5445 38.3032C45.4148 38.3032 46.1202 37.5977 46.1202 36.7275C46.1202 35.8572 45.4148 35.1517 44.5445 35.1517C43.6742 35.1517 42.9688 35.8572 42.9688 36.7275C42.9688 37.5977 43.6742 38.3032 44.5445 38.3032Z" fill="#3C3F44"/>
<path d="M34.5338 38.3032C35.404 38.3032 36.1095 37.5977 36.1095 36.7275C36.1095 35.8572 35.404 35.1517 34.5338 35.1517C33.6635 35.1517 32.958 35.8572 32.958 36.7275C32.958 37.5977 33.6635 38.3032 34.5338 38.3032Z" fill="#3C3F44"/>
<path d="M29.6131 13.0741C29.6975 12.7824 29.744 12.4746 29.744 12.1559C29.744 10.3325 28.2594 8.85449 26.4282 8.85449C24.5967 8.85449 23.1123 10.3325 23.1123 12.1559C23.1123 12.4746 23.1582 12.7824 23.2431 13.0741C21.6041 13.2736 20.3345 14.6633 20.3345 16.3495C20.3345 18.1728 21.8188 19.6509 23.6498 19.6509C24.8136 19.6509 25.8363 19.0538 26.4282 18.1507C27.0198 19.0538 28.0427 19.6509 29.2059 19.6509C31.0374 19.6509 32.522 18.1728 32.522 16.3495C32.5219 14.6633 31.2523 13.2736 29.6131 13.0741Z" fill="#0059AD"/>
</g>
<defs>
<clipPath id="clip0_8027_2869">
<rect width="48" height="48" fill="white"/>
</clipPath>
</defs>
</svg>
