<svg width="48" height="48" viewBox="0 0 48 48" fill="none" xmlns="http://www.w3.org/2000/svg">
<g clip-path="url(#clip0_8027_2932)">
<path d="M30.8584 14.0486V11.483C30.8584 11.2171 30.6411 10.9995 30.3755 10.9995H20.5654C20.2998 10.9995 20.0825 11.2171 20.0825 11.483V14.0486C20.0825 14.3145 20.2998 14.5321 20.5654 14.5321C20.2998 14.5321 20.0825 14.7497 20.0825 15.0156V17.5813C20.0825 17.8472 20.2998 18.0648 20.5654 18.0648C20.2998 18.0648 20.0825 18.2824 20.0825 18.5483V21.114C20.0825 21.3799 20.2998 21.5975 20.5654 21.5975C20.2998 21.5975 20.0825 21.815 20.0825 22.0809V24.6466C20.0825 24.9125 20.2998 25.1301 20.5654 25.1301C20.2998 25.1301 20.0825 25.3477 20.0825 25.6135V28.1793C20.0825 28.4452 20.2998 28.6628 20.5654 28.6628H30.3755C30.6411 28.6628 30.8584 28.4453 30.8584 28.1793V25.6135C30.8584 25.3477 30.6411 25.1301 30.3755 25.1301C30.6411 25.1301 30.8584 24.9126 30.8584 24.6466V22.0809C30.8584 21.8151 30.6411 21.5975 30.3755 21.5975C30.6411 21.5975 30.8584 21.3799 30.8584 21.114V18.5483C30.8584 18.2824 30.6411 18.0648 30.3755 18.0648C30.6411 18.0648 30.8584 17.8472 30.8584 17.5813V15.0156C30.8584 14.7497 30.6411 14.5321 30.3755 14.5321C30.6411 14.5319 30.8584 14.3145 30.8584 14.0486Z" fill="#F8B816"/>
<path d="M13.7076 21.2523H4.49951C4.23391 21.2523 4.0166 21.4698 4.0166 21.7357V28.1789C4.0166 28.4448 4.23391 28.6624 4.49951 28.6624H13.7076V21.2523Z" fill="#4B7D32"/>
<path d="M20.7186 21.2521H13.707V28.6621H20.7186V21.2521Z" fill="#FED0A5"/>
<path d="M17.0549 21.2521H13.707V28.6621H17.0549V21.2521Z" fill="#EBB272"/>
<path d="M9.60204 25.4474H4.0166V26.8537H9.60204C9.99035 26.8537 10.3052 26.5389 10.3052 26.1505C10.3052 25.7621 9.99035 25.4474 9.60204 25.4474Z" fill="#60A041"/>
<path d="M7.78085 23.0611H4.0166V24.4673H7.78085C8.16916 24.4673 8.48398 24.1525 8.48398 23.7642C8.48398 23.3759 8.16916 23.0611 7.78085 23.0611Z" fill="#60A041"/>
<path d="M30.8584 28.1791C30.8584 28.445 30.6411 28.6626 30.3755 28.6626H20.5654C20.2998 28.6626 20.0825 28.4451 20.0825 28.1791V25.6134C20.0825 25.3475 20.2998 25.1299 20.5654 25.1299H30.3755C30.6411 25.1299 30.8584 25.3475 30.8584 25.6134V28.1791Z" fill="#F8B816"/>
<path d="M30.8584 24.6464C30.8584 24.9123 30.6411 25.1299 30.3755 25.1299H20.5654C20.2998 25.1299 20.0825 24.9124 20.0825 24.6464V22.0808C20.0825 21.8149 20.2998 21.5973 20.5654 21.5973H30.3755C30.6411 21.5973 30.8584 21.8148 30.8584 22.0808V24.6464Z" fill="#FECF05"/>
<path d="M30.8584 21.1138C30.8584 21.3797 30.6411 21.5973 30.3755 21.5973H20.5654C20.2998 21.5973 20.0825 21.3797 20.0825 21.1138V18.5481C20.0825 18.2822 20.2998 18.0646 20.5654 18.0646H30.3755C30.6411 18.0646 30.8584 18.2822 30.8584 18.5481V21.1138Z" fill="#F8B816"/>
<path d="M30.8584 17.5812C30.8584 17.8471 30.6411 18.0647 30.3755 18.0647H20.5654C20.2998 18.0647 20.0825 17.8471 20.0825 17.5812V15.0155C20.0825 14.7496 20.2998 14.532 20.5654 14.532H30.3755C30.6411 14.532 30.8584 14.7496 30.8584 15.0155V17.5812Z" fill="#FECF05"/>
<path d="M30.8584 14.0486C30.8584 14.3145 30.6411 14.5321 30.3755 14.5321H20.5654C20.2998 14.5321 20.0825 14.3146 20.0825 14.0486V11.483C20.0825 11.2171 20.2998 10.9995 20.5654 10.9995H30.3755C30.6411 10.9995 30.8584 11.2171 30.8584 11.483V14.0486Z" fill="#F8B816"/>
<path opacity="0.1" d="M21.2814 28.1791V25.6133C21.2814 25.3475 21.4987 25.1299 21.7643 25.1299C21.4987 25.1299 21.2814 24.9124 21.2814 24.6464V22.0807C21.2814 21.8149 21.4987 21.5973 21.7643 21.5973C21.4987 21.5973 21.2814 21.3797 21.2814 21.1138V18.548C21.2814 18.2822 21.4987 18.0646 21.7643 18.0646C21.4987 18.0646 21.2814 17.847 21.2814 17.5811V15.0154C21.2814 14.7495 21.4987 14.5319 21.7643 14.5319C21.4987 14.5319 21.2814 14.3144 21.2814 14.0484V11.4828C21.2814 11.2169 21.4987 10.9993 21.7643 10.9993H20.5654C20.2998 10.9993 20.0825 11.2169 20.0825 11.4828V14.0484C20.0825 14.3143 20.2998 14.5319 20.5654 14.5319C20.2998 14.5319 20.0825 14.7495 20.0825 15.0154V17.5811C20.0825 17.847 20.2998 18.0646 20.5654 18.0646C20.2998 18.0646 20.0825 18.2822 20.0825 18.548V21.1138C20.0825 21.3797 20.2998 21.5973 20.5654 21.5973C20.2998 21.5973 20.0825 21.8148 20.0825 22.0807V24.6464C20.0825 24.9123 20.2998 25.1299 20.5654 25.1299C20.2998 25.1299 20.0825 25.3475 20.0825 25.6133V28.1791C20.0825 28.445 20.2998 28.6625 20.5654 28.6625H21.7643C21.4987 28.6625 21.2814 28.445 21.2814 28.1791Z" fill="black"/>
<path d="M40.2628 18.512V15.9463C40.2628 15.6804 40.0455 15.4628 39.7799 15.4628H29.9697C29.7041 15.4628 29.4868 15.6804 29.4868 15.9463V18.512C29.4868 18.7779 29.7041 18.9955 29.9697 18.9955C29.7041 18.9955 29.4868 19.213 29.4868 19.479V22.0446C29.4868 22.3105 29.7041 22.5281 29.9697 22.5281C29.7041 22.5281 29.4868 22.7456 29.4868 23.0115V25.5772C29.4868 25.8431 29.7041 26.0607 29.9697 26.0607C29.7041 26.0607 29.4868 26.2783 29.4868 26.5442V29.1099C29.4868 29.3758 29.7041 29.5934 29.9697 29.5934C29.7041 29.5934 29.4868 29.8109 29.4868 30.0769V32.6426C29.4868 32.9085 29.7041 33.1261 29.9697 33.1261C29.7041 33.1261 29.4868 33.3436 29.4868 33.6096V35.5276H40.2627V33.6094C40.2627 33.3435 40.0454 33.1259 39.7798 33.1259C40.0454 33.1259 40.2627 32.9083 40.2627 32.6424V30.0767C40.2627 29.8108 40.0454 29.5932 39.7798 29.5932C40.0454 29.5932 40.2627 29.3757 40.2627 29.1097V26.544C40.2627 26.2781 40.0454 26.0605 39.7798 26.0605C40.0454 26.0605 40.2627 25.843 40.2627 25.577V23.0113C40.2627 22.7454 40.0454 22.5279 39.7798 22.5279C40.0454 22.5279 40.2627 22.3103 40.2627 22.0445V19.4788C40.2627 19.2129 40.0454 18.9953 39.7798 18.9953C40.0455 18.9954 40.2628 18.7779 40.2628 18.512Z" fill="#F8B816"/>
<path d="M40.2628 35.5274V33.6094C40.2628 33.3435 40.0455 33.1259 39.7799 33.1259H29.9697C29.7041 33.1259 29.4868 33.3434 29.4868 33.6094V35.5274H40.2628Z" fill="#FECF05"/>
<path d="M40.2628 32.6424C40.2628 32.9083 40.0455 33.1259 39.7799 33.1259H29.9697C29.7041 33.1259 29.4868 32.9083 29.4868 32.6424V30.0767C29.4868 29.8108 29.7041 29.5932 29.9697 29.5932H39.7799C40.0455 29.5932 40.2628 29.8107 40.2628 30.0767V32.6424Z" fill="#F8B816"/>
<path d="M40.2628 29.1099C40.2628 29.3757 40.0455 29.5933 39.7799 29.5933H29.9697C29.7041 29.5933 29.4868 29.3758 29.4868 29.1099V26.5441C29.4868 26.2782 29.7041 26.0606 29.9697 26.0606H39.7799C40.0455 26.0606 40.2628 26.2782 40.2628 26.5441V29.1099Z" fill="#FECF05"/>
<path d="M40.2628 25.5773C40.2628 25.8431 40.0455 26.0607 39.7799 26.0607H29.9697C29.7041 26.0607 29.4868 25.8432 29.4868 25.5773V23.0115C29.4868 22.7456 29.7041 22.5281 29.9697 22.5281H39.7799C40.0455 22.5281 40.2628 22.7456 40.2628 23.0115V25.5773Z" fill="#F8B816"/>
<path d="M40.2628 22.0447C40.2628 22.3105 40.0455 22.5281 39.7799 22.5281H29.9697C29.7041 22.5281 29.4868 22.3105 29.4868 22.0447V19.479C29.4868 19.2131 29.7041 18.9955 29.9697 18.9955H39.7799C40.0455 18.9955 40.2628 19.213 40.2628 19.479V22.0447Z" fill="#FECF05"/>
<path d="M40.2628 18.512C40.2628 18.7779 40.0455 18.9955 39.7799 18.9955H29.9697C29.7041 18.9955 29.4868 18.7779 29.4868 18.512V15.9463C29.4868 15.6804 29.7041 15.4628 29.9697 15.4628H39.7799C40.0455 15.4628 40.2628 15.6804 40.2628 15.9463V18.512Z" fill="#F8B816"/>
<path opacity="0.1" d="M31.1393 33.1258C30.8737 33.1258 30.6563 32.9082 30.6563 32.6423V30.0766C30.6563 29.8107 30.8737 29.5931 31.1393 29.5931C30.8737 29.5931 30.6563 29.3756 30.6563 29.1096V26.5439C30.6563 26.278 30.8737 26.0604 31.1393 26.0604C30.8737 26.0604 30.6563 25.8429 30.6563 25.577V23.0112C30.6563 22.7453 30.8737 22.5278 31.1393 22.5278C30.8737 22.5278 30.6563 22.3102 30.6563 22.0444V19.4787C30.6563 19.2128 30.8737 18.9952 31.1393 18.9952C30.8737 18.9952 30.6563 18.7776 30.6563 18.5118V15.946C30.6563 15.6801 30.8737 15.4626 31.1393 15.4626H29.9697C29.7041 15.4626 29.4868 15.6801 29.4868 15.946V18.5118C29.4868 18.7776 29.7041 18.9952 29.9697 18.9952C29.7041 18.9952 29.4868 19.2127 29.4868 19.4787V22.0444C29.4868 22.3102 29.7041 22.5278 29.9697 22.5278C29.7041 22.5278 29.4868 22.7453 29.4868 23.0112V25.577C29.4868 25.8428 29.7041 26.0604 29.9697 26.0604C29.7041 26.0604 29.4868 26.278 29.4868 26.5439V29.1096C29.4868 29.3755 29.7041 29.5931 29.9697 29.5931C29.7041 29.5931 29.4868 29.8106 29.4868 30.0766V32.6423C29.4868 32.9082 29.7041 33.1258 29.9697 33.1258C29.7041 33.1258 29.4868 33.3433 29.4868 33.6093V35.5273H30.6563V33.6094C30.6563 33.3435 30.8737 33.1258 31.1393 33.1258Z" fill="black"/>
<path d="M34.3089 9.42226C34.2266 9.42226 34.1523 9.37257 34.1207 9.29644C33.6956 8.26819 33.3822 7.95423 32.3557 7.52823C32.2797 7.49663 32.23 7.42229 32.23 7.33988C32.23 7.25738 32.2797 7.18304 32.3557 7.15144C33.3822 6.72544 33.6955 6.41148 34.1207 5.38332C34.1523 5.3071 34.2266 5.25751 34.3089 5.25751C34.3912 5.25751 34.4654 5.30719 34.4969 5.38332C34.9221 6.41157 35.2356 6.72544 36.2621 7.15144C36.338 7.18294 36.3877 7.25738 36.3877 7.33988C36.3877 7.42229 36.3381 7.49663 36.2621 7.52823C35.2355 7.95423 34.9221 8.2681 34.4969 9.29644C34.4654 9.37257 34.3912 9.42226 34.3089 9.42226Z" fill="#F8B816"/>
<path d="M44.5737 29.7136C44.4999 29.7136 44.4334 29.6691 44.4052 29.6008C44.0244 28.68 43.7438 28.3989 42.8245 28.0174C42.7564 27.9891 42.7119 27.9224 42.7119 27.8486C42.7119 27.7749 42.7564 27.7082 42.8245 27.6799C43.7438 27.2984 44.0244 27.0174 44.4052 26.0965C44.4334 26.0283 44.4999 25.9838 44.5737 25.9838C44.6474 25.9838 44.7139 26.0283 44.7421 26.0965C45.1229 27.0174 45.4035 27.2984 46.3229 27.6799C46.391 27.7082 46.4354 27.7749 46.4354 27.8486C46.4354 27.9224 46.3909 27.9891 46.3229 28.0174C45.4035 28.3989 45.1229 28.68 44.7421 29.6008C44.7139 29.6691 44.6473 29.7136 44.5737 29.7136Z" fill="#F8B816"/>
<path d="M13.0591 18.3688C12.9687 18.3688 12.8872 18.3141 12.8525 18.2305C12.3855 17.1013 12.0414 16.7565 10.914 16.2886C10.8304 16.254 10.7759 16.1722 10.7759 16.0817C10.7759 15.9911 10.8303 15.9095 10.914 15.8748C12.0414 15.4069 12.3856 15.0621 12.8525 13.9328C12.8872 13.8491 12.9687 13.7946 13.0591 13.7946C13.1494 13.7946 13.231 13.8491 13.2656 13.9328C13.7326 15.0621 14.0768 15.4069 15.2042 15.8748C15.2877 15.9095 15.3423 15.9911 15.3423 16.0817C15.3423 16.1722 15.2877 16.254 15.2042 16.2886C14.0768 16.7565 13.7326 17.1013 13.2656 18.2305C13.231 18.3142 13.1494 18.3688 13.0591 18.3688Z" fill="#FECF05"/>
<path d="M47.5173 35.3323H38.3092V35.5274H38.103V42.7424H47.5173C47.7829 42.7424 48.0002 42.5249 48.0002 42.2589V35.8157C48.0002 35.5499 47.7829 35.3323 47.5173 35.3323Z" fill="#60A041"/>
<path d="M34.9604 35.3325H29.4863V42.7425H34.9604V35.3325Z" fill="#EBB272"/>
<path d="M38.3093 35.3325H34.9614V42.7425H38.3093V35.3325Z" fill="#FED0A5"/>
<path d="M48.0001 37.1413H42.4146C42.0262 37.1413 41.7114 37.4561 41.7114 37.8444C41.7114 38.2327 42.0262 38.5475 42.4146 38.5475H48.0001V37.1413Z" fill="#4B7D32"/>
<path d="M48.0002 39.5273H44.2358C43.8475 39.5273 43.5327 39.8422 43.5327 40.2305C43.5327 40.6188 43.8475 40.9336 44.2358 40.9336H48.0002V39.5273Z" fill="#4B7D32"/>
<path d="M32.5473 42.259C32.5473 42.5249 32.33 42.7425 32.0644 42.7425H0.482906C0.217313 42.7425 0 42.525 0 42.259V28.9288C0 28.6629 0.217313 28.4453 0.482906 28.4453H32.0644C32.33 28.4453 32.5473 28.6628 32.5473 28.9288V42.259Z" fill="#89C947"/>
<path opacity="0.1" d="M1.78678 42.259V28.9288C1.78678 28.6629 2.00409 28.4453 2.26969 28.4453H0.482906C0.217313 28.4453 0 28.6628 0 28.9288V42.259C0 42.5249 0.217313 42.7425 0.482906 42.7425H2.26969C2.004 42.7424 1.78678 42.5249 1.78678 42.259Z" fill="black"/>
<path d="M6.14314 31.216C5.87755 31.216 5.48455 31.344 5.26977 31.5005L3.15805 33.039C2.94327 33.1955 2.76758 33.5409 2.76758 33.8069V37.3808C2.76758 37.6467 2.94327 37.9923 3.15805 38.1488L5.26977 39.6873C5.48455 39.8437 5.87755 39.9717 6.14314 39.9717H26.0556C26.3212 39.9717 26.7142 39.8437 26.929 39.6872L29.3892 37.8948C29.604 37.7383 29.7797 37.3928 29.7797 37.1269V34.061C29.7797 33.7951 29.604 33.4495 29.3892 33.2931L26.929 31.5007C26.7142 31.3442 26.3212 31.2162 26.0556 31.2162H6.14314V31.216Z" fill="#4B7D32"/>
<path d="M16.2739 39.6948C18.5361 39.6948 20.37 37.8588 20.37 35.5941C20.37 33.3293 18.5361 31.4933 16.2739 31.4933C14.0116 31.4933 12.1777 33.3293 12.1777 35.5941C12.1777 37.8588 14.0116 39.6948 16.2739 39.6948Z" fill="#89C947"/>
<path opacity="0.1" d="M13.3892 35.5939C13.3892 33.5374 14.9013 31.8347 16.8731 31.5389C16.6775 31.5094 16.4776 31.4932 16.2738 31.4932C14.0116 31.4932 12.1777 33.3292 12.1777 35.5939C12.1777 37.8587 14.0116 39.6946 16.2738 39.6946C16.4777 39.6946 16.6775 39.6784 16.8732 39.6489C14.9014 39.3531 13.3892 37.6504 13.3892 35.5939Z" fill="black"/>
<path d="M7.19538 37.1457C8.05136 37.1457 8.74526 36.451 8.74526 35.5941C8.74526 34.7371 8.05136 34.0424 7.19538 34.0424C6.33941 34.0424 5.64551 34.7371 5.64551 35.5941C5.64551 36.451 6.33941 37.1457 7.19538 37.1457Z" fill="#60A041"/>
<path d="M25.3521 37.1457C26.2081 37.1457 26.902 36.451 26.902 35.5941C26.902 34.7371 26.2081 34.0424 25.3521 34.0424C24.4962 34.0424 23.8022 34.7371 23.8022 35.5941C23.8022 36.451 24.4962 37.1457 25.3521 37.1457Z" fill="#60A041"/>
</g>
<defs>
<clipPath id="clip0_8027_2932">
<rect width="48" height="48" fill="white"/>
</clipPath>
</defs>
</svg>
